<svg width="18" height="18" viewBox="0 0 18 18" fill="none" xmlns="http://www.w3.org/2000/svg">
<path d="M9 18C4.029 18 0 13.971 0 9C0 4.029 4.029 0 9 0C13.971 0 18 4.029 18 9C18 13.971 13.971 18 9 18Z" fill="#AABED0"/>
<path fill-rule="evenodd" clip-rule="evenodd" d="M8.80005 6.2002C9.35233 6.2002 9.80005 5.75248 9.80005 5.2002C9.80005 4.64791 9.35233 4.2002 8.80005 4.2002C8.24776 4.2002 7.80005 4.64791 7.80005 5.2002C7.80005 5.75248 8.24776 6.2002 8.80005 6.2002ZM8 7.7C7.58579 7.7 7.25 8.03579 7.25 8.45C7.25 8.86421 7.58579 9.2 8 9.2H8.25V13.45C8.25 13.8642 8.58579 14.2 9 14.2C9.41421 14.2 9.75 13.8642 9.75 13.45V8.45C9.75 8.03579 9.41421 7.7 9 7.7H8Z" fill="white"/>
</svg>
