<svg width="18" height="18" viewBox="0 0 18 18" fill="none" xmlns="http://www.w3.org/2000/svg">
<path fill-rule="evenodd" clip-rule="evenodd" d="M9 18C13.9706 18 18 13.9706 18 9C18 4.02944 13.9706 0 9 0C4.02944 0 0 4.02944 0 9C0 13.9706 4.02944 18 9 18ZM7.29289 6.70711C6.90237 6.31658 6.90237 5.68342 7.29289 5.29289C7.68342 4.90237 8.31658 4.90237 8.70711 5.29289L11.7071 8.29289C12.0976 8.68342 12.0976 9.31658 11.7071 9.70711L8.70711 12.7071C8.31658 13.0976 7.68342 13.0976 7.29289 12.7071C6.90237 12.3166 6.90237 11.6834 7.29289 11.2929L9.58579 9L7.29289 6.70711Z" fill="#AABED0"/>
</svg>
